<mxfile host="drawio-plugin" modified="2021-05-23T14:29:43.134Z" agent="5.0 (Windows NT 6.2; Win64; x64) AppleWebKit/537.36 (KHTML, like Gecko) Chrome/87.0.4280.141 Safari/537.36" etag="rcGoyTzqkqfUy34yPF4g" version="14.6.6" type="embed"><diagram id="QYIaraFEubYuZA-D_Cw6" name="Page-1"><mxGraphModel dx="1752" dy="591" grid="1" gridSize="10" guides="1" tooltips="1" connect="1" arrows="1" fold="1" page="1" pageScale="1" pageWidth="827" pageHeight="1169" math="0" shadow="0"><root><mxCell id="0"/><mxCell id="1" parent="0"/><mxCell id="SqYj_s5KyIml5vu_qU1m-1" value="Lead" style="swimlane;fontStyle=1;align=center;verticalAlign=top;childLayout=stackLayout;horizontal=1;startSize=26;horizontalStack=0;resizeParent=1;resizeParentMax=0;resizeLast=0;collapsible=1;marginBottom=0;" parent="1" vertex="1"><mxGeometry x="-150" y="290" width="260" height="290" as="geometry"/></mxCell><mxCell id="SqYj_s5KyIml5vu_qU1m-2" value="- id: Integer&#10;- name: String&#10;- phoneNumber: String&#10;- email: String&#10;- companyName: String / &#10;Account?" style="text;strokeColor=none;fillColor=none;align=left;verticalAlign=top;spacingLeft=4;spacingRight=4;overflow=hidden;rotatable=0;points=[[0,0.5],[1,0.5]];portConstraint=eastwest;" parent="SqYj_s5KyIml5vu_qU1m-1" vertex="1"><mxGeometry y="26" width="260" height="124" as="geometry"/></mxCell><mxCell id="SqYj_s5KyIml5vu_qU1m-3" value="" style="line;strokeWidth=1;fillColor=none;align=left;verticalAlign=middle;spacingTop=-1;spacingLeft=3;spacingRight=3;rotatable=0;labelPosition=right;points=[];portConstraint=eastwest;" parent="SqYj_s5KyIml5vu_qU1m-1" vertex="1"><mxGeometry y="150" width="260" height="8" as="geometry"/></mxCell><mxCell id="SqYj_s5KyIml5vu_qU1m-4" value="+ convertToOpportunity(id): Opportunity&#10;+ createContact(): Contact&#10;+ trackInterestInProduct(Products, int)&#10;+ createAccount(industry, employee count, &#10;city, country, companyName): Account&#10;+ addContactToContactList()&#10;+ addOpportunityToOpportunityList()" style="text;strokeColor=none;fillColor=none;align=left;verticalAlign=top;spacingLeft=4;spacingRight=4;overflow=hidden;rotatable=0;points=[[0,0.5],[1,0.5]];portConstraint=eastwest;" parent="SqYj_s5KyIml5vu_qU1m-1" vertex="1"><mxGeometry y="158" width="260" height="132" as="geometry"/></mxCell><mxCell id="SqYj_s5KyIml5vu_qU1m-5" value="Opportunity" style="swimlane;fontStyle=1;align=center;verticalAlign=top;childLayout=stackLayout;horizontal=1;startSize=26;horizontalStack=0;resizeParent=1;resizeParentMax=0;resizeLast=0;collapsible=1;marginBottom=0;" parent="1" vertex="1"><mxGeometry x="310" y="280" width="230" height="196" as="geometry"/></mxCell><mxCell id="SqYj_s5KyIml5vu_qU1m-6" value="- id: Integer&#10;- account: Account&#10;- product: Products (enum)&#10;- quantity:  int&#10;- decisionMaker: Contact&#10;- status: Status (enum)" style="text;strokeColor=none;fillColor=none;align=left;verticalAlign=top;spacingLeft=4;spacingRight=4;overflow=hidden;rotatable=0;points=[[0,0.5],[1,0.5]];portConstraint=eastwest;" parent="SqYj_s5KyIml5vu_qU1m-5" vertex="1"><mxGeometry y="26" width="230" height="94" as="geometry"/></mxCell><mxCell id="SqYj_s5KyIml5vu_qU1m-7" value="" style="line;strokeWidth=1;fillColor=none;align=left;verticalAlign=middle;spacingTop=-1;spacingLeft=3;spacingRight=3;rotatable=0;labelPosition=right;points=[];portConstraint=eastwest;" parent="SqYj_s5KyIml5vu_qU1m-5" vertex="1"><mxGeometry y="120" width="230" height="8" as="geometry"/></mxCell><mxCell id="SqYj_s5KyIml5vu_qU1m-8" value="+ addToAccount(Opportunity)&#10;+ changeOpportunityStatus(id)" style="text;strokeColor=none;fillColor=none;align=left;verticalAlign=top;spacingLeft=4;spacingRight=4;overflow=hidden;rotatable=0;points=[[0,0.5],[1,0.5]];portConstraint=eastwest;" parent="SqYj_s5KyIml5vu_qU1m-5" vertex="1"><mxGeometry y="128" width="230" height="68" as="geometry"/></mxCell><mxCell id="SqYj_s5KyIml5vu_qU1m-9" value="Account" style="swimlane;fontStyle=1;align=center;verticalAlign=top;childLayout=stackLayout;horizontal=1;startSize=26;horizontalStack=0;resizeParent=1;resizeParentMax=0;resizeLast=0;collapsible=1;marginBottom=0;" parent="1" vertex="1"><mxGeometry x="720" y="331" width="220" height="188" as="geometry"/></mxCell><mxCell id="SqYj_s5KyIml5vu_qU1m-10" value="- accountId: Integer&#10;- companyName: String&#10;- industry: Industry&#10;- employeeCount: int&#10;- city: String&#10;- country: String&#10;- contactList: ArrayList&lt;Contact&gt;&#10;- opportunityList: ArrayList&lt;Opportunity&gt;" style="text;strokeColor=none;fillColor=none;align=left;verticalAlign=top;spacingLeft=4;spacingRight=4;overflow=hidden;rotatable=0;points=[[0,0.5],[1,0.5]];portConstraint=eastwest;" parent="SqYj_s5KyIml5vu_qU1m-9" vertex="1"><mxGeometry y="26" width="220" height="114" as="geometry"/></mxCell><mxCell id="SqYj_s5KyIml5vu_qU1m-11" value="" style="line;strokeWidth=1;fillColor=none;align=left;verticalAlign=middle;spacingTop=-1;spacingLeft=3;spacingRight=3;rotatable=0;labelPosition=right;points=[];portConstraint=eastwest;" parent="SqYj_s5KyIml5vu_qU1m-9" vertex="1"><mxGeometry y="140" width="220" height="8" as="geometry"/></mxCell><mxCell id="SqYj_s5KyIml5vu_qU1m-12" value="+ method(type): type" style="text;strokeColor=none;fillColor=none;align=left;verticalAlign=top;spacingLeft=4;spacingRight=4;overflow=hidden;rotatable=0;points=[[0,0.5],[1,0.5]];portConstraint=eastwest;" parent="SqYj_s5KyIml5vu_qU1m-9" vertex="1"><mxGeometry y="148" width="220" height="40" as="geometry"/></mxCell><mxCell id="SqYj_s5KyIml5vu_qU1m-13" value="Contact" style="swimlane;fontStyle=1;align=center;verticalAlign=top;childLayout=stackLayout;horizontal=1;startSize=26;horizontalStack=0;resizeParent=1;resizeParentMax=0;resizeLast=0;collapsible=1;marginBottom=0;" parent="1" vertex="1"><mxGeometry x="360" y="660" width="240" height="164" as="geometry"/></mxCell><mxCell id="SqYj_s5KyIml5vu_qU1m-14" value="- id: Integer&#10;- name: String&#10;- phoneNumber: String&#10;- email: String&#10;- companyName: String / &#10;Company?&#10;" style="text;strokeColor=none;fillColor=none;align=left;verticalAlign=top;spacingLeft=4;spacingRight=4;overflow=hidden;rotatable=0;points=[[0,0.5],[1,0.5]];portConstraint=eastwest;" parent="SqYj_s5KyIml5vu_qU1m-13" vertex="1"><mxGeometry y="26" width="240" height="104" as="geometry"/></mxCell><mxCell id="SqYj_s5KyIml5vu_qU1m-15" value="" style="line;strokeWidth=1;fillColor=none;align=left;verticalAlign=middle;spacingTop=-1;spacingLeft=3;spacingRight=3;rotatable=0;labelPosition=right;points=[];portConstraint=eastwest;" parent="SqYj_s5KyIml5vu_qU1m-13" vertex="1"><mxGeometry y="130" width="240" height="8" as="geometry"/></mxCell><mxCell id="SqYj_s5KyIml5vu_qU1m-16" value="+ method(type): type" style="text;strokeColor=none;fillColor=none;align=left;verticalAlign=top;spacingLeft=4;spacingRight=4;overflow=hidden;rotatable=0;points=[[0,0.5],[1,0.5]];portConstraint=eastwest;" parent="SqYj_s5KyIml5vu_qU1m-13" vertex="1"><mxGeometry y="138" width="240" height="26" as="geometry"/></mxCell><mxCell id="SqYj_s5KyIml5vu_qU1m-17" style="edgeStyle=orthogonalEdgeStyle;rounded=0;orthogonalLoop=1;jettySize=auto;html=1;" parent="1" source="SqYj_s5KyIml5vu_qU1m-18" target="SqYj_s5KyIml5vu_qU1m-5" edge="1"><mxGeometry relative="1" as="geometry"/></mxCell><mxCell id="SqYj_s5KyIml5vu_qU1m-18" value="&lt;&lt;enumeration&gt;&gt;&#10;Products" style="swimlane;fontStyle=1;align=center;verticalAlign=top;childLayout=stackLayout;horizontal=1;startSize=40;horizontalStack=0;resizeParent=1;resizeParentMax=0;resizeLast=0;collapsible=1;marginBottom=0;" parent="1" vertex="1"><mxGeometry x="230" y="90" width="160" height="134" as="geometry"/></mxCell><mxCell id="SqYj_s5KyIml5vu_qU1m-19" value="- HYBRID&#10;- FLATBED&#10;- BOX" style="text;strokeColor=none;fillColor=none;align=left;verticalAlign=top;spacingLeft=4;spacingRight=4;overflow=hidden;rotatable=0;points=[[0,0.5],[1,0.5]];portConstraint=eastwest;" parent="SqYj_s5KyIml5vu_qU1m-18" vertex="1"><mxGeometry y="40" width="160" height="60" as="geometry"/></mxCell><mxCell id="SqYj_s5KyIml5vu_qU1m-20" value="" style="line;strokeWidth=1;fillColor=none;align=left;verticalAlign=middle;spacingTop=-1;spacingLeft=3;spacingRight=3;rotatable=0;labelPosition=right;points=[];portConstraint=eastwest;" parent="SqYj_s5KyIml5vu_qU1m-18" vertex="1"><mxGeometry y="100" width="160" height="8" as="geometry"/></mxCell><mxCell id="SqYj_s5KyIml5vu_qU1m-21" value="+ method(type): type" style="text;strokeColor=none;fillColor=none;align=left;verticalAlign=top;spacingLeft=4;spacingRight=4;overflow=hidden;rotatable=0;points=[[0,0.5],[1,0.5]];portConstraint=eastwest;" parent="SqYj_s5KyIml5vu_qU1m-18" vertex="1"><mxGeometry y="108" width="160" height="26" as="geometry"/></mxCell><mxCell id="SqYj_s5KyIml5vu_qU1m-22" style="edgeStyle=orthogonalEdgeStyle;rounded=0;orthogonalLoop=1;jettySize=auto;html=1;" parent="1" source="SqYj_s5KyIml5vu_qU1m-23" target="SqYj_s5KyIml5vu_qU1m-5" edge="1"><mxGeometry relative="1" as="geometry"/></mxCell><mxCell id="SqYj_s5KyIml5vu_qU1m-23" value="&lt;&lt;enumeration&gt;&gt;&#10;Status" style="swimlane;fontStyle=1;align=center;verticalAlign=top;childLayout=stackLayout;horizontal=1;startSize=40;horizontalStack=0;resizeParent=1;resizeParentMax=0;resizeLast=0;collapsible=1;marginBottom=0;" parent="1" vertex="1"><mxGeometry x="430" y="90" width="160" height="134" as="geometry"/></mxCell><mxCell id="SqYj_s5KyIml5vu_qU1m-24" value="- OPEN&#10;- CLOSED_WON&#10;- CLOSED_LOST" style="text;strokeColor=none;fillColor=none;align=left;verticalAlign=top;spacingLeft=4;spacingRight=4;overflow=hidden;rotatable=0;points=[[0,0.5],[1,0.5]];portConstraint=eastwest;" parent="SqYj_s5KyIml5vu_qU1m-23" vertex="1"><mxGeometry y="40" width="160" height="60" as="geometry"/></mxCell><mxCell id="SqYj_s5KyIml5vu_qU1m-25" value="" style="line;strokeWidth=1;fillColor=none;align=left;verticalAlign=middle;spacingTop=-1;spacingLeft=3;spacingRight=3;rotatable=0;labelPosition=right;points=[];portConstraint=eastwest;" parent="SqYj_s5KyIml5vu_qU1m-23" vertex="1"><mxGeometry y="100" width="160" height="8" as="geometry"/></mxCell><mxCell id="SqYj_s5KyIml5vu_qU1m-26" value="+ method(type): type" style="text;strokeColor=none;fillColor=none;align=left;verticalAlign=top;spacingLeft=4;spacingRight=4;overflow=hidden;rotatable=0;points=[[0,0.5],[1,0.5]];portConstraint=eastwest;" parent="SqYj_s5KyIml5vu_qU1m-23" vertex="1"><mxGeometry y="108" width="160" height="26" as="geometry"/></mxCell><mxCell id="SqYj_s5KyIml5vu_qU1m-27" style="edgeStyle=orthogonalEdgeStyle;rounded=0;orthogonalLoop=1;jettySize=auto;html=1;entryX=1;entryY=0.5;entryDx=0;entryDy=0;" parent="1" source="SqYj_s5KyIml5vu_qU1m-29" target="SqYj_s5KyIml5vu_qU1m-4" edge="1"><mxGeometry relative="1" as="geometry"><mxPoint x="-90" y="590" as="targetPoint"/></mxGeometry></mxCell><mxCell id="SqYj_s5KyIml5vu_qU1m-28" style="edgeStyle=orthogonalEdgeStyle;rounded=0;orthogonalLoop=1;jettySize=auto;html=1;entryX=0.013;entryY=1.029;entryDx=0;entryDy=0;entryPerimeter=0;" parent="1" source="SqYj_s5KyIml5vu_qU1m-29" target="SqYj_s5KyIml5vu_qU1m-8" edge="1"><mxGeometry relative="1" as="geometry"><Array as="points"><mxPoint x="150" y="670"/><mxPoint x="260" y="670"/><mxPoint x="260" y="518"/></Array></mxGeometry></mxCell><mxCell id="SqYj_s5KyIml5vu_qU1m-29" value="Menu" style="swimlane;fontStyle=1;align=center;verticalAlign=top;childLayout=stackLayout;horizontal=1;startSize=26;horizontalStack=0;resizeParent=1;resizeParentMax=0;resizeLast=0;collapsible=1;marginBottom=0;" parent="1" vertex="1"><mxGeometry x="-40" y="720" width="280" height="230" as="geometry"/></mxCell><mxCell id="SqYj_s5KyIml5vu_qU1m-30" value="+ggf. leadCount: (set to zero)" style="text;strokeColor=none;fillColor=none;align=left;verticalAlign=top;spacingLeft=4;spacingRight=4;overflow=hidden;rotatable=0;points=[[0,0.5],[1,0.5]];portConstraint=eastwest;" parent="SqYj_s5KyIml5vu_qU1m-29" vertex="1"><mxGeometry y="26" width="280" height="26" as="geometry"/></mxCell><mxCell id="SqYj_s5KyIml5vu_qU1m-31" value="" style="line;strokeWidth=1;fillColor=none;align=left;verticalAlign=middle;spacingTop=-1;spacingLeft=3;spacingRight=3;rotatable=0;labelPosition=right;points=[];portConstraint=eastwest;" parent="SqYj_s5KyIml5vu_qU1m-29" vertex="1"><mxGeometry y="52" width="280" height="8" as="geometry"/></mxCell><mxCell id="SqYj_s5KyIml5vu_qU1m-32" value="+ createNewLead(): Lead&#10;+ showAllLeads(): Hashmap&lt;Integer, String&gt;&#10;+ showLead(id): Lead&#10;+ removeLead()&#10;+ createNewAccount(): Account&#10;+ displayOpportunityInformation&#10;+ changeOpportunityStatus(id): Status (enum)" style="text;strokeColor=none;fillColor=none;align=left;verticalAlign=top;spacingLeft=4;spacingRight=4;overflow=hidden;rotatable=0;points=[[0,0.5],[1,0.5]];portConstraint=eastwest;" parent="SqYj_s5KyIml5vu_qU1m-29" vertex="1"><mxGeometry y="60" width="280" height="170" as="geometry"/></mxCell><mxCell id="SqYj_s5KyIml5vu_qU1m-33" style="edgeStyle=orthogonalEdgeStyle;rounded=0;orthogonalLoop=1;jettySize=auto;html=1;entryX=0.25;entryY=0;entryDx=0;entryDy=0;" parent="1" source="SqYj_s5KyIml5vu_qU1m-34" target="SqYj_s5KyIml5vu_qU1m-9" edge="1"><mxGeometry relative="1" as="geometry"/></mxCell><mxCell id="SqYj_s5KyIml5vu_qU1m-34" value="&lt;&lt;enumeration&gt;&gt;&#10;Industry" style="swimlane;fontStyle=1;align=center;verticalAlign=top;childLayout=stackLayout;horizontal=1;startSize=40;horizontalStack=0;resizeParent=1;resizeParentMax=0;resizeLast=0;collapsible=1;marginBottom=0;" parent="1" vertex="1"><mxGeometry x="620" y="90" width="160" height="184" as="geometry"/></mxCell><mxCell id="SqYj_s5KyIml5vu_qU1m-35" value="- PRODUCE&#10;- ECOMMERCE&#10;- MANUFACTURING&#10;- MEDICAL &#10;- OTHER" style="text;strokeColor=none;fillColor=none;align=left;verticalAlign=top;spacingLeft=4;spacingRight=4;overflow=hidden;rotatable=0;points=[[0,0.5],[1,0.5]];portConstraint=eastwest;" parent="SqYj_s5KyIml5vu_qU1m-34" vertex="1"><mxGeometry y="40" width="160" height="110" as="geometry"/></mxCell><mxCell id="SqYj_s5KyIml5vu_qU1m-36" value="" style="line;strokeWidth=1;fillColor=none;align=left;verticalAlign=middle;spacingTop=-1;spacingLeft=3;spacingRight=3;rotatable=0;labelPosition=right;points=[];portConstraint=eastwest;" parent="SqYj_s5KyIml5vu_qU1m-34" vertex="1"><mxGeometry y="150" width="160" height="8" as="geometry"/></mxCell><mxCell id="SqYj_s5KyIml5vu_qU1m-37" value="+ method(type): type" style="text;strokeColor=none;fillColor=none;align=left;verticalAlign=top;spacingLeft=4;spacingRight=4;overflow=hidden;rotatable=0;points=[[0,0.5],[1,0.5]];portConstraint=eastwest;" parent="SqYj_s5KyIml5vu_qU1m-34" vertex="1"><mxGeometry y="158" width="160" height="26" as="geometry"/></mxCell><mxCell id="SqYj_s5KyIml5vu_qU1m-38" value="Relation" style="endArrow=open;html=1;endSize=12;startArrow=diamondThin;startSize=14;startFill=0;edgeStyle=orthogonalEdgeStyle;entryX=0.5;entryY=0;entryDx=0;entryDy=0;exitX=0.761;exitY=1.029;exitDx=0;exitDy=0;exitPerimeter=0;" parent="1" source="SqYj_s5KyIml5vu_qU1m-8" target="SqYj_s5KyIml5vu_qU1m-13" edge="1"><mxGeometry relative="1" as="geometry"><mxPoint x="419" y="520" as="sourcePoint"/><mxPoint x="480" y="630" as="targetPoint"/><Array as="points"><mxPoint x="485" y="560"/><mxPoint x="480" y="560"/></Array></mxGeometry></mxCell><mxCell id="SqYj_s5KyIml5vu_qU1m-39" value="0..n" style="edgeLabel;resizable=0;html=1;align=left;verticalAlign=top;" parent="SqYj_s5KyIml5vu_qU1m-38" connectable="0" vertex="1"><mxGeometry x="-1" relative="1" as="geometry"><mxPoint x="-45" y="112" as="offset"/></mxGeometry></mxCell><mxCell id="SqYj_s5KyIml5vu_qU1m-40" value="1" style="edgeLabel;resizable=0;html=1;align=right;verticalAlign=top;" parent="SqYj_s5KyIml5vu_qU1m-38" connectable="0" vertex="1"><mxGeometry x="1" relative="1" as="geometry"><mxPoint x="20" y="-180" as="offset"/></mxGeometry></mxCell><mxCell id="SqYj_s5KyIml5vu_qU1m-41" value="Relation" style="endArrow=open;html=1;endSize=12;startArrow=diamondThin;startSize=14;startFill=0;edgeStyle=orthogonalEdgeStyle;entryX=-0.005;entryY=0.246;entryDx=0;entryDy=0;exitX=1.004;exitY=0.575;exitDx=0;exitDy=0;exitPerimeter=0;entryPerimeter=0;" parent="1" source="SqYj_s5KyIml5vu_qU1m-6" target="SqYj_s5KyIml5vu_qU1m-10" edge="1"><mxGeometry relative="1" as="geometry"><mxPoint x="605.03" y="360.00199999999995" as="sourcePoint"/><mxPoint x="600" y="502.03" as="targetPoint"/><Array as="points"><mxPoint x="650" y="383"/><mxPoint x="650" y="385"/></Array></mxGeometry></mxCell><mxCell id="SqYj_s5KyIml5vu_qU1m-42" value="1" style="edgeLabel;resizable=0;html=1;align=left;verticalAlign=top;" parent="SqYj_s5KyIml5vu_qU1m-41" connectable="0" vertex="1"><mxGeometry x="-1" relative="1" as="geometry"><mxPoint x="-1" y="7" as="offset"/></mxGeometry></mxCell><mxCell id="SqYj_s5KyIml5vu_qU1m-43" value="1" style="edgeLabel;resizable=0;html=1;align=right;verticalAlign=top;" parent="SqYj_s5KyIml5vu_qU1m-41" connectable="0" vertex="1"><mxGeometry x="1" relative="1" as="geometry"><mxPoint x="20" y="-124" as="offset"/></mxGeometry></mxCell><mxCell id="SqYj_s5KyIml5vu_qU1m-44" value="1" style="edgeLabel;resizable=0;html=1;align=left;verticalAlign=top;" parent="1" connectable="0" vertex="1"><mxGeometry x="710.0000000000001" y="389.99999999999994" as="geometry"/></mxCell><mxCell id="SqYj_s5KyIml5vu_qU1m-45" style="edgeStyle=orthogonalEdgeStyle;rounded=0;orthogonalLoop=1;jettySize=auto;html=1;" parent="1" source="SqYj_s5KyIml5vu_qU1m-2" target="SqYj_s5KyIml5vu_qU1m-6" edge="1"><mxGeometry relative="1" as="geometry"/></mxCell></root></mxGraphModel></diagram></mxfile>